<svg id="Ebene_1" data-name="Ebene 1" xmlns="http://www.w3.org/2000/svg" xmlns:xlink="http://www.w3.org/1999/xlink" viewBox="0 0 836 151"><defs><style>.cls-1{fill:#ffffff;}.cls-2{fill:url(#Unbenannter_Verlauf_18);}.cls-3{fill:url(#Unbenannter_Verlauf_29);}</style><linearGradient id="Unbenannter_Verlauf_18" x1="565.23" y1="77.6" x2="717.25" y2="77.6" gradientUnits="userSpaceOnUse"><stop offset="0" stop-color="#941a47"/><stop offset="1" stop-color="#d3144a"/></linearGradient><linearGradient id="Unbenannter_Verlauf_29" x1="724.01" y1="101.37" x2="817.07" y2="8.31" gradientUnits="userSpaceOnUse"><stop offset="0" stop-color="#a72243"/><stop offset="1" stop-color="#cb3036"/></linearGradient></defs><path class="cls-1" d="M1.92,76.74c0-43,30.95-74.41,71.44-74.41,15.89,0,28.06,4.12,37.75,10.12a1.06,1.06,0,0,1,.48.75l2.33,16.29a1,1,0,0,1-1.65,1C101.12,22.23,88.61,17,74.21,17,42.83,17,18,40.49,18,76.74c0,35.83,24.17,59.79,57.24,59.79a66.94,66.94,0,0,0,40.12-13.42,1,1,0,0,1,1.66,1l-2.48,15.77a1.06,1.06,0,0,1-.48.73c-10.53,6.62-23.54,10.13-39,10.13C30.33,150.73,1.92,117.23,1.92,76.74Z"/><path class="cls-1" d="M232.68,148.2,189,90.51a1,1,0,0,0-.83-.41H163.23a1,1,0,0,0-1,1v56.42a1,1,0,0,1-1.05,1.05H147.55a1,1,0,0,1-1.05-1.05V5.49a1,1,0,0,1,1.05-1h38.81c30.31,0,47.7,18,47.7,42.19,0,18.8-10.68,33.38-27.91,39.79a1,1,0,0,0-.47,1.62L251,146.93a1,1,0,0,1-.83,1.68H233.52A1.06,1.06,0,0,1,232.68,148.2ZM185.3,76.32c17.18,0,29-7.72,32-21.31,4.25-18.69-10.49-36.36-29.65-36.36H163.23a1,1,0,0,0-1,1.05V75.27a1,1,0,0,0,1,1Z"/><path class="cls-1" d="M358.24,135.66l-2.53,12.12a1.06,1.06,0,0,1-1,.83H275.17a1,1,0,0,1-1.05-1.05V5.49a1,1,0,0,1,1.05-1h77.38a1,1,0,0,1,1,.84l2.35,12.12a1,1,0,0,1-1,1.24h-64a1,1,0,0,0-1.05,1.05V67.64a1,1,0,0,0,1.05,1h57.05a1,1,0,0,1,1,1V81.42a1,1,0,0,1-1,1H290.86a1,1,0,0,0-1.05,1.05v49.85a1,1,0,0,0,1.05,1h66.35A1,1,0,0,1,358.24,135.66Z"/><path class="cls-1" d="M568.11,5.83,518.59,149.18a1,1,0,0,1-1,.7h-4.67a1,1,0,0,1-1-.68L471.62,39.53a1,1,0,0,0-2,0l-41,109.67a1,1,0,0,1-1,.68h-5.1a1,1,0,0,1-1-.7L372.33,5.83a1,1,0,0,1,1-1.38h14.1a1,1,0,0,1,1,.71l36.87,111h.84L467.43,4.49a1,1,0,0,1,1-.68h4.27a1,1,0,0,1,1,.68l41.52,111.68h.63l36.44-111a1.05,1.05,0,0,1,1-.72h13.89A1,1,0,0,1,568.11,5.83Z"/><path class="cls-2" d="M566.65,100.37a76,76,0,0,1,3.28-11.12L599.84,6.19a1.38,1.38,0,0,1,1.23-.89h22.48a.82.82,0,0,1,.78,1.18L594.62,88.83a103.24,103.24,0,0,0-3.14,10.49c-4,18.26,5.67,28.34,22.63,28.34,19.3,0,39.06-12.81,48.3-38.62L692.28,6.19a1.37,1.37,0,0,1,1.23-.89h22.9a.83.83,0,0,1,.78,1.18l-30,82.77c-14.09,39.25-46.12,60.65-78.77,60.65C578.29,149.9,559.82,131.64,566.65,100.37Z"/><path class="cls-3" d="M830.79,48.68c-5.88,27.22-32.16,52.74-67.57,52.74H743.14a1.37,1.37,0,0,0-1.23.9L725.31,149a1.37,1.37,0,0,1-1.23.9H701a.83.83,0,0,1-.78-1.19L751,6.2a1.36,1.36,0,0,1,1.23-.9h43.4C824.46,5.3,835.93,24.86,830.79,48.68Zm-26,.85c2.84-13.18-3.21-21.48-18.9-21.48H769.36a1.39,1.39,0,0,0-1.23.9L750.71,77.68a.84.84,0,0,0,.77,1.2H767C786.74,78.88,801.3,65.48,804.74,49.53Z"/></svg>